<svg version="1.1" id="Layer_1" xmlns="http://www.w3.org/2000/svg" xmlns:xlink="http://www.w3.org/1999/xlink" x="0px" y="0px"
	 width="100%" viewBox="0 0 352 352" enable-background="new 0 0 352 352" xml:space="preserve">
<path fill="#000000" opacity="1.000000" stroke="none" 
	d="
M112.879883,137.884933 
	C126.790359,123.978386 140.432678,110.322525 154.082535,96.674202 
	C155.376114,95.380783 156.685593,94.099792 158.044724,92.876404 
	C159.424057,91.634842 161.024261,91.137169 162.457092,92.636436 
	C163.865433,94.110077 163.327454,95.731926 162.151520,97.116684 
	C161.184158,98.255829 160.114334,99.311371 159.052887,100.366730 
	C139.583771,119.724197 120.109039,139.076035 100.635902,158.429459 
	C100.399864,158.664047 100.172714,158.907593 99.935257,159.140671 
	C98.351898,160.694763 96.613815,162.533676 94.500610,160.243729 
	C92.690422,158.282166 94.235695,156.587173 95.703773,155.113693 
	C101.341095,149.455673 106.977226,143.796463 112.879883,137.884933 
z"/>
</svg>