<svg version="1.1" id="Layer_1" xmlns="http://www.w3.org/2000/svg" xmlns:xlink="http://www.w3.org/1999/xlink" x="0px" y="0px"
	 width="100%" viewBox="0 0 362 362" enable-background="new 0 0 362 362" xml:space="preserve">
<path fill="#FFFFFF" opacity="1.000000" stroke="none" 
	d="
M357.179810,363.000000 
	C238.162018,363.000000 119.665504,363.000000 1.084493,363.000000 
	C1.084493,242.393265 1.084493,121.786438 1.084493,1.089811 
	C121.603195,1.089811 242.206467,1.089811 362.904877,1.089811 
	C362.904877,121.599632 362.904877,242.199371 362.904877,363.000000 
	C361.235504,363.000000 359.468323,363.000000 357.179810,363.000000 
M69.470924,259.019012 
	C68.763390,259.722839 68.007469,260.385010 67.358498,261.139191 
	C66.059746,262.648560 63.305374,264.114777 66.029030,266.219604 
	C66.781738,266.801300 69.624466,265.737274 70.731705,264.642792 
	C87.659843,247.909592 104.503235,231.089447 121.197723,214.123627 
	C122.424843,212.876556 122.360062,210.358215 122.895897,208.430908 
	C121.261932,209.115005 119.222870,209.389618 118.055084,210.544922 
	C101.961983,226.466141 85.988770,242.508530 69.470924,259.019012 
z"/>
<path fill="#000000" opacity="1.000000" stroke="none" 
	d="
M69.728546,258.770111 
	C85.988770,242.508530 101.961983,226.466141 118.055084,210.544922 
	C119.222870,209.389618 121.261932,209.115005 122.895897,208.430908 
	C122.360062,210.358215 122.424843,212.876556 121.197723,214.123627 
	C104.503235,231.089447 87.659843,247.909592 70.731705,264.642792 
	C69.624466,265.737274 66.781738,266.801300 66.029030,266.219604 
	C63.305374,264.114777 66.059746,262.648560 67.358498,261.139191 
	C68.007469,260.385010 68.763390,259.722839 69.728546,258.770111 
z"/>
</svg>