<svg version="1.1" id="Layer_1" xmlns="http://www.w3.org/2000/svg" xmlns:xlink="http://www.w3.org/1999/xlink" x="0px" y="0px"
	 width="100%" viewBox="0 0 726 643" enable-background="new 0 0 726 643" xml:space="preserve">
<path fill="none" opacity="1.000000" stroke="#000000" stroke-linecap="round" stroke-linejoin="round" stroke-width="6.000000"
	d="
M21.500000,413.500000 
	C214.500000,413.500000 407.500000,413.500000 600.500000,413.500000 
"/>
<path fill="none" opacity="1.000000" stroke="#000000" stroke-linecap="round" stroke-linejoin="round" stroke-width="6.000000"
	d="
M105.500000,415.500000 
	C105.500000,323.500000 105.490852,231.500000 105.526573,139.500015 
	C105.528389,134.824326 104.584023,130.157516 106.358963,125.446861 
	C107.270424,123.027863 105.377991,120.306259 105.401428,117.499176 
	C105.580940,96.000679 105.497696,74.500000 105.501312,53.000000 
	C105.502502,45.941864 105.951385,45.500000 113.000000,45.500000 
	C128.000000,45.500000 143.000000,45.500000 158.000000,45.500000 
	C239.666672,45.500000 321.333344,45.498306 403.000000,45.509945 
	C405.007294,45.510231 407.052704,45.200928 409.500000,46.256119 
	C409.500000,66.163910 409.500000,86.331955 409.500000,106.500000 
"/>
<path fill="none" opacity="1.000000" stroke="#000000" stroke-linecap="round" stroke-linejoin="round" stroke-width="5.000000"
	d="
M165.000000,47.000000 
	C161.233856,54.736874 155.363998,61.034626 150.406647,67.932907 
	C137.686188,85.633789 124.454178,102.966446 111.576035,120.555672 
	C110.384224,122.183464 109.318184,123.651512 107.500000,124.500000 
"/>
</svg>