<svg version="1.1" id="Layer_1" xmlns="http://www.w3.org/2000/svg" xmlns:xlink="http://www.w3.org/1999/xlink" x="0px" y="0px"
	 width="100%" viewBox="0 0 256 272" enable-background="new 0 0 256 272" xml:space="preserve">
<path fill="#000000" opacity="1.000000" stroke="none" 
	d="
M139.539795,198.100571 
	C123.270393,195.709366 110.901108,187.790894 101.766388,174.791458 
	C85.837784,152.123825 91.373718,119.115150 113.774986,102.692963 
	C140.515274,83.089890 176.407730,90.000542 192.781250,119.148079 
	C203.742035,138.660095 201.780273,161.010452 187.184982,178.784485 
	C174.994232,193.630310 158.938629,199.573639 139.539795,198.100571 
M178.229614,110.269485 
	C166.225433,99.492668 152.428894,95.342926 136.401917,98.358551 
	C116.222015,102.155602 98.798660,122.171326 98.368561,142.695328 
	C98.059608,157.438507 103.306564,169.789307 114.172821,179.960266 
	C135.538284,199.958603 167.896698,195.472794 184.270004,173.241638 
	C199.394791,152.705673 195.757111,126.496109 178.229614,110.269485 
z"/>
</svg>