<svg version="1.1" id="Layer_1" xmlns="http://www.w3.org/2000/svg" xmlns:xlink="http://www.w3.org/1999/xlink" x="0px" y="0px"
	 width="100%" viewBox="0 0 352 352" enable-background="new 0 0 352 352" xml:space="preserve">
<path fill="#000000" opacity="1.000000" stroke="none" 
	d="
M217.814697,235.185730 
	C207.335678,224.708755 197.101822,214.486786 186.886673,204.246140 
	C185.952103,203.309235 185.027573,202.326279 184.296112,201.232483 
	C183.495926,200.035889 183.454788,198.688034 184.564972,197.593750 
	C185.668167,196.506332 187.000397,196.543564 188.208878,197.345657 
	C189.168045,197.982269 190.018982,198.805130 190.839523,199.623932 
	C203.549103,212.306763 216.245926,225.002396 228.945312,237.695450 
	C229.298019,238.047974 229.672211,238.383057 229.992615,238.763153 
	C231.357498,240.382278 233.484039,242.030685 231.357635,244.269180 
	C229.245255,246.492905 227.412186,244.679092 225.842819,243.175949 
	C223.201813,240.646362 220.652710,238.020813 217.814697,235.185730 
z"/>
</svg>