<svg version="1.1" id="Layer_1" xmlns="http://www.w3.org/2000/svg" xmlns:xlink="http://www.w3.org/1999/xlink" x="0px" y="0px"
	 width="100%" viewBox="0 0 352 352" enable-background="new 0 0 352 352" xml:space="preserve">
<path fill="#000000" opacity="1.000000" stroke="none" 
	d="
M229.963684,138.039932 
	C216.538925,124.617615 203.362305,111.449272 190.191437,98.275169 
	C189.369125,97.452667 188.564957,96.608620 187.800018,95.732964 
	C186.709778,94.484955 186.245102,93.052094 187.480591,91.713104 
	C188.880585,90.195824 190.553665,90.521103 191.910126,91.772247 
	C194.596848,94.250389 197.188339,96.834007 199.772552,99.420639 
	C217.403366,117.067856 235.021927,134.727295 252.645065,152.382172 
	C253.349915,153.088318 254.081848,153.768646 254.764664,154.495270 
	C256.124969,155.942856 257.016907,157.606445 255.433731,159.324478 
	C253.739105,161.163467 252.107681,160.071762 250.714279,158.716293 
	C247.138031,155.237411 243.586456,151.732788 240.052689,148.210709 
	C236.754349,144.923233 233.491577,141.600037 229.963684,138.039932 
z"/>
</svg>