<svg version="1.1" id="Layer_1" xmlns="http://www.w3.org/2000/svg" xmlns:xlink="http://www.w3.org/1999/xlink" x="0px" y="0px"
	 width="100%" viewBox="0 0 362 362" enable-background="new 0 0 362 362" xml:space="preserve">
<path fill="#FFFFFF" opacity="1.000000" stroke="none" 
	d="
M212.000000,363.000000 
	C141.357559,363.000000 71.215111,363.000000 1.036335,363.000000 
	C1.036335,242.399231 1.036335,121.798431 1.036335,1.098822 
	C121.559052,1.098822 242.118210,1.098822 362.838684,1.098822 
	C362.838684,121.666496 362.838684,242.333221 362.838684,363.000000 
	C312.798492,363.000000 262.649261,363.000000 212.000000,363.000000 
M178.000000,150.500000 
	C177.514465,118.362114 179.129395,86.188789 176.878845,54.089981 
	C172.236877,53.771049 173.015198,56.791328 173.014282,59.153927 
	C172.995346,108.447975 172.975327,157.742096 173.106888,207.035797 
	C173.111298,208.689804 174.693390,210.339569 175.540085,211.991302 
	C176.360062,210.312805 177.877426,208.640747 177.892975,206.954819 
	C178.063614,188.471115 178.000000,169.985275 178.000000,150.500000 
z"/>
<path fill="#000000" opacity="1.000000" stroke="none" 
	d="
M178.000000,151.000000 
	C178.000000,169.985275 178.063614,188.471115 177.892975,206.954819 
	C177.877426,208.640747 176.360062,210.312805 175.540100,211.991302 
	C174.693390,210.339569 173.111298,208.689804 173.106888,207.035797 
	C172.975327,157.742096 172.995346,108.447975 173.014282,59.153927 
	C173.015198,56.791328 172.236877,53.771049 176.878845,54.089981 
	C179.129395,86.188789 177.514465,118.362114 178.000000,151.000000 
z"/>
</svg>